<svg t="1637638027109" class="icon" viewBox="0 0 1024 1024" version="1.1" xmlns="http://www.w3.org/2000/svg" p-id="4676" width="64" height="64"><path d="M907.306667 448H202.026667a32 32 0 0 1 0-64H855.466667l-57.173334-114.346667a32 32 0 0 1 57.386667-28.586666l80.213333 160.64A32 32 0 0 1 907.306667 448zM197.12 800.64a32.64 32.64 0 0 1-28.8-17.706667l-80.213333-160.64A32 32 0 0 1 116.693333 576h704a32 32 0 0 1 0 64H168.533333l57.173334 114.133333a32.213333 32.213333 0 0 1-14.293334 42.666667 34.986667 34.986667 0 0 1-14.293333 3.84z" fill="#000000" p-id="4677"></path></svg>